{"title":"Adventures.in.Babysitting.1987.720p.BluRay.H264.AAC-RARBG","uid":12112661,"size":1328562732,"categoryP":"video","categoryS":"hd___movies","magnet":"?xt=urn:btih:5ecd97bde2c7e2459d617d6bf6a7bc8b35c32472&amp;dn=Adventures.in.Babysitting.1987.720p.BluRay.H264.AAC-RARBG&amp;tr=udp%3A%2F%2Ftracker.openbittorrent.com%3A80&amp;tr=udp%3A%2F%2Fopen.demonii.com%3A1337&amp;tr=udp%3A%2F%2Ftracker.coppersurfer.tk%3A6969&amp;tr=udp%3A%2F%2Fexodus.desync.com%3A6969","seeders":0,"leechers":1,"uploader":null,"files":5,"time":1436615225,"description":"Video\nID                                       : 1\nFormat                                   : AVC\nFormat/Info                              : Advanced Video Codec\nFormat profile                           : &lt;a class=&quot;__cf_email__&quot; href=&quot;/cdn-cgi/l/email-protection&quot; data-cfemail=&quot;9cd4f5fbf4dcd0a8b2ad&quot;&gt;[email&amp;#160;protected]&lt;/a&gt;&lt;script data-cfhash='f9e31' type=&quot;text/javascript&quot;&gt;\n/* &lt;![CDATA[ */!function(){try{var t=&quot;currentScript&quot;in document?document.currentScript:function(){for(var t=document.getElementsByTagName(&quot;script&quot;),e=t.length;e--;)if(t[e].getAttribute(&quot;data-cfhash&quot;))return t[e]}();if(t&amp;&amp;t.previousSibling){var e,r,n,i,c=t.previousSibling,a=c.getAttribute(&quot;data-cfemail&quot;);if(a){for(e=&quot;&quot;,r=parseInt(a.substr(0,2),16),n=2;a.length-n;n+=2)i=parseInt(a.substr(n,2),16)^r,e+=String.fromCharCode(i);e=document.createTextNode(e),c.parentNode.replaceChild(e,c)}t.parentNode.removeChild(t);}}catch(u){}}()/* ]]&gt; */&lt;/script&gt;\nFormat settings, CABAC                   : Yes\nFormat settings, ReFrames                : 4 frames\nCodec ID                                 : avc1\nCodec ID/Info                            : Advanced Video Coding\nDuration                                 : 1h 42mn\nBit rate                                 : 1 500 Kbps\nWidth                                    : 1 280 pixels\nHeight                                   : 694 pixels\nDisplay aspect ratio                     : 1.85:1\nFrame rate mode                          : Constant\nFrame rate                               : 23.976 fps\nColor space                              : YUV\nChroma subsampling                       : 4:2:0\nBit depth                                : 8 bits\nScan type                                : Progressive\nBits/(Pixel*Frame)                       : 0.070\nStream size                              : 1.07 GiB (87%)\nWriting library                          : x264 core 144 r2525M 40bb568\nEncoding settings                        : cabac=1 / ref=4 / deblock=1:-1:-1 / analyse=0x3:0x113 / me=umh / subme=9 / psy=1 / psy_rd=1.00:0.15 / mixed_ref=1 / me_range=24 / chroma_me=1 / trellis=2 / 8x8dct=1 / cqm=0 / deadzone=21,11 / fast_pskip=1 / chroma_qp_offset=-3 / threads=32 / lookahead_threads=4 / sliced_threads=0 / nr=0 / decimate=1 / interlaced=0 / bluray_compat=0 / constrained_intra=0 / bframes=3 / b_pyramid=2 / b_adapt=1 / b_bias=0 / direct=1 / weightb=1 / open_gop=0 / weightp=2 / keyint=250 / keyint_min=25 / scenecut=40 / intra_refresh=0 / rc_lookahead=50 / rc=2pass / mbtree=1 / bitrate=1500 / ratetol=1.0 / qcomp=0.60 / qpmin=0 / qpmax=69 / qpstep=4 / cplxblur=20.0 / qblur=0.5 / vbv_maxrate=31250 / vbv_bufsize=31250 / nal_hrd=none / filler=0 / ip_ratio=1.40 / aq=3:1.00\nEncoded date                             : UTC 1904-01-01 00:00:00\nTagged date                              : UTC 1904-01-01 00:00:00\n\nAudio\nID                                       : 2\nFormat                                   : AAC\nFormat/Info                              : Advanced Audio Codec\nFormat profile                           : LC\nCodec ID                                 : 40\nDuration                                 : 1h 42mn\nBit rate mode                            : Constant\nBit rate                                 : 224 Kbps\nChannel(s)                               : 2 channels\nChannel(s)_Original                      : 6 channels\nChannel positions                        : Front: L C R, Side: L R, LFE\nSampling rate                            : 48.0 KHz\nCompression mode                         : Lossy\nStream size                              : 164 MiB (13%)\nLanguage                                 : English\nEncoded date                             : UTC 1904-01-01 00:00:00\nTagged date                              : UTC 1904-01-01 00:00:00\n\nMenu #1\nID                                       : 3\nCodec ID                                 : text\nDuration                                 : 1h 42mn\nLanguage                                 : English\nEncoded date                             : UTC 1904-01-01 00:00:00\nTagged date                              : UTC 1904-01-01 00:00:00\nBit rate mode                            : CBR\n00:00:00.000                             : 00:00:00.000\n00:04:53.378                             : 00:04:53.335\n00:11:16.135                             : 00:11:16.092\n00:14:43.134                             : 00:14:43.091\n00:17:29.758                             : 00:17:29.715\n00:21:05.098                             : 00:21:05.055\n00:27:08.587                             : 00:27:08.544\n00:29:36.609                             : 00:29:36.566\n00:35:16.741                             : 00:35:16.698\n00:41:17.601                             : 00:41:17.558\n00:51:05.188                             : 00:51:05.145\n00:55:43.091                             : 00:55:43.048\n01:01:21.220                             : 01:01:21.177\n01:05:14.954                             : 01:05:14.911\n01:10:24.847                             : 01:10:24.804\n01:15:25.606                             : 01:15:25.563\n01:19:36.565                             : 01:19:36.522\n01:24:27.731                             : 01:24:27.688\n01:27:08.349                             : 01:27:08.306\n01:30:30.259                             : 01:30:30.216\n01:33:59.468                             : 01:33:59.425\n01:37:15.915                             : 01:37:15.872\n\nMenu #2\n00:00:00.043                             : 00:00:00.000\n00:04:53.378                             : 00:04:53.335\n00:11:16.135                             : 00:11:16.092\n00:14:43.134                             : 00:14:43.091\n00:17:29.758                             : 00:17:29.715\n00:21:05.098                             : 00:21:05.055\n00:27:08.587                             : 00:27:08.544\n00:29:36.609                             : 00:29:36.566\n00:35:16.741                             : 00:35:16.698\n00:41:17.601                             : 00:41:17.558\n00:51:05.188                             : 00:51:05.145\n00:55:43.091                             : 00:55:43.048\n01:01:21.220                             : 01:01:21.177\n01:05:14.954                             : 01:05:14.911\n01:10:24.847                             : 01:10:24.804\n01:15:25.606                             : 01:15:25.563\n01:19:36.565                             : 01:19:36.522\n01:24:27.731                             : 01:24:27.688\n01:27:08.349                             : 01:27:08.306\n01:30:30.259                             : 01:30:30.216\n01:33:59.468                             : 01:33:59.425\n01:37:15.915                             : 01:37:15.872","torrent":{"xt":"urn:btih:5ecd97bde2c7e2459d617d6bf6a7bc8b35c32472","amp;dn":"Adventures.in.Babysitting.1987.720p.BluRay.H264.AAC-RARBG","amp;tr":["udp%3A%2F%2Ftracker.openbittorrent.com%3A80","udp%3A%2F%2Fopen.demonii.com%3A1337","udp%3A%2F%2Ftracker.coppersurfer.tk%3A6969","udp%3A%2F%2Fexodus.desync.com%3A6969"],"infoHash":"5ecd97bde2c7e2459d617d6bf6a7bc8b35c32472","infoHashBuffer":{"type":"Buffer","data":[94,205,151,189,226,199,226,69,157,97,125,107,246,167,188,139,53,195,36,114]},"announce":[],"urlList":[]}}